<?xml version="1.0" encoding="utf-8"?>
<!-- Generator: Adobe Illustrator 25.2.0, SVG Export Plug-In . SVG Version: 6.00 Build 0)  -->
<svg version="1.1" id="_x34_756976_xA0_Image_00000053538881919953125330000014866341696354098852_"
	 xmlns="http://www.w3.org/2000/svg" xmlns:xlink="http://www.w3.org/1999/xlink" x="0px" y="0px" viewBox="0 0 578.3 111.4"
	 style="enable-background:new 0 0 578.3 111.4;" xml:space="preserve">
<style type="text/css">
	.st0{fill:#EAB633;}
	.st1{fill:#FFFFFF;}
	.st2{fill:#5B481D;}
	.st3{fill:#262626;}
	.st4{fill:#7F7F7F;}
</style>
<path class="st0" d="M102.8,111.4l-94.5,0c-4.6,0-8.4-3.8-8.4-8.4L0,8.5c0-4.6,3.8-8.4,8.4-8.4l94.5,0c4.6,0,8.4,3.8,8.4,8.4l0,94.5
	C111.2,107.6,107.4,111.4,102.8,111.4z"/>
<polygon class="st1" points="13.8,55.8 36.7,78.7 36.7,32.9 "/>
<path class="st1" d="M51.3,31.6l0,16L70.6,29l-15-15L42.3,27.3l4.7,0C49.4,27.3,51.3,29.2,51.3,31.6z"/>
<path class="st1" d="M71.3,81.9L55.6,97.6L39,81l12.3-12.4l2.1-2.1l1.5,1.5l0,0l2.6,2.6l8.9,8.9C67.8,80.9,69.5,81.7,71.3,81.9z"/>
<polygon class="st1" points="97.4,55.8 80.3,72.9 65.9,58.5 65.2,57.7 65.1,57.7 63.6,56.3 80.8,39.1 "/>
<polygon class="st2" points="36.7,32.9 36.7,78.7 35.6,77.6 35.6,34 "/>
<polygon class="st2" points="70.6,29 51.4,47.7 51.4,46.6 69.5,29 55.1,14.5 55.6,14 "/>
<path class="st2" d="M71.3,81.9L55.6,97.6L55.1,97l15.1-15.1c-1.8-0.2-3.5-1-4.8-2.3l-8.9-8.9L53.8,68l0,0l-0.9-0.9l0.5-0.5l1.5,1.5
	l0,0l2.6,2.6l8.9,8.9C67.8,80.9,69.5,81.7,71.3,81.9z"/>
<polygon class="st2" points="97.4,55.8 80.3,72.9 79.8,72.3 96.3,55.8 80.2,39.7 80.7,39.1 "/>
<path class="st3" d="M306.6,52.7c1,1,2.5,1.6,4.4,1.6h27.4c1.4,0,2.6-0.5,3.5-1.5c1-1,1.4-2.1,1.4-3.5c0-1.3-0.5-2.5-1.5-3.4
	s-2.2-1.4-3.5-1.4h-22V32h21.5c1.4,0,2.6-0.5,3.5-1.4c1-1,1.4-2.1,1.4-3.4c0-1.3-0.5-2.5-1.4-3.4c-1-1-2.1-1.4-3.5-1.4h-21.5V10.6
	h22c1.4,0,2.6-0.5,3.5-1.4c1-0.9,1.4-2.1,1.4-3.4c0-1.4-0.5-2.6-1.4-3.5c-1-1-2.1-1.4-3.5-1.4H311c-1.9,0-3.4,0.5-4.4,1.6
	c-1,1-1.6,2.5-1.6,4.4v41.3C305,50.1,305.5,51.6,306.6,52.7z M272.4,53.1c1.1,1.1,2.5,1.7,4.1,1.7c1.5,0,2.9-0.6,4-1.7
	c1.1-1.1,1.7-2.5,1.7-4V10.8h11.1c1.4,0,2.6-0.5,3.6-1.5c1-1,1.5-2.1,1.5-3.5c0-1.4-0.5-2.6-1.5-3.6c-1-1-2.2-1.5-3.6-1.5h-33.7
	c-1.4,0-2.6,0.5-3.6,1.5c-1,1-1.5,2.2-1.5,3.6c0,1.3,0.5,2.5,1.5,3.5c1,1,2.2,1.5,3.6,1.5h11.1v38.3C270.7,50.7,271.3,52,272.4,53.1
	z M238.1,53.1c1.1,1.1,2.5,1.7,4.1,1.7c1.5,0,2.9-0.6,4-1.7c1.1-1.1,1.6-2.5,1.6-4V5.9c0-1.5-0.6-2.9-1.6-4c-1.1-1.1-2.4-1.7-4-1.7
	c-1.6,0-3,0.6-4.1,1.7c-1.1,1.1-1.7,2.5-1.7,4v43.2C236.4,50.7,237,52,238.1,53.1z M196.1,52.7c1,1,2.5,1.6,4.4,1.6h23.5
	c1.4,0,2.6-0.5,3.5-1.5c1-1,1.4-2.2,1.4-3.6c0-1.4-0.5-2.6-1.4-3.5c-1-1-2.1-1.4-3.5-1.4h-18.2V5.9c0-1.5-0.6-2.9-1.6-4
	c-1.1-1.1-2.4-1.7-4-1.7c-1.6,0-3,0.6-4.1,1.7c-1.1,1.1-1.7,2.5-1.7,4v42.2C194.5,50.1,195.1,51.6,196.1,52.7z M185.2,45.7
	l-17.9-19.5l16.2-17.1c0.9-0.9,1.4-2.1,1.4-3.5s-0.5-2.7-1.6-3.7c-1-1-2.3-1.6-3.7-1.6c-1.5,0-2.9,0.6-4,1.8L155,24.8V5.9
	c0-1.5-0.6-2.9-1.6-4c-1.1-1.1-2.4-1.7-4-1.7c-1.5,0-2.9,0.6-4,1.7c-1.1,1.1-1.7,2.5-1.7,4v43.2c0,1.5,0.6,2.9,1.7,4
	c1.1,1.1,2.5,1.7,4,1.7c1.6,0,3-0.6,4-1.7c1.1-1.1,1.6-2.5,1.6-4V37.8l4.3-4.8l17.8,20c1,1.2,2.3,1.8,4.1,1.8c1.5,0,2.8-0.5,3.8-1.6
	c1-1.1,1.5-2.4,1.5-3.9C186.5,48,186.1,46.8,185.2,45.7z"/>
<path class="st0" d="M351.9,49.8c5.1,3.6,11.3,5.4,18.8,5.4c6.8,0,12-1.5,15.8-4.6c3.7-3.1,5.6-7.3,5.6-12.5
	c0-6.6-3.3-11.1-9.9-13.5c-2.9-1.2-6.3-2.2-10.1-3c-4.1-1-6.9-1.9-8.4-2.7c-1.5-0.8-2.2-1.9-2.2-3.5c0-1.7,0.7-3,2.2-4
	c1.5-1,3.6-1.4,6.4-1.4c4,0,8,1.1,12.1,3.4c0.7,0.5,1.7,0.8,2.7,0.8c1.4,0,2.6-0.5,3.6-1.6c1-1,1.6-2.3,1.6-3.7c0-2-0.9-3.5-2.6-4.5
	c-5-2.9-10.5-4.4-16.6-4.4c-6.4,0-11.5,1.5-15.3,4.6c-3.8,3-5.7,6.9-5.7,11.5c0,3.4,0.9,6.2,2.7,8.5c1.8,2.2,4.2,3.9,7,5
	c2.7,1,6.1,1.9,10.2,2.9c3.9,0.9,6.7,1.8,8.3,2.8c1.7,1,2.5,2.3,2.5,4c0,1.7-0.8,3.1-2.5,4.3c-1.7,1.1-3.9,1.7-6.8,1.7
	c-4.9,0-9.3-1.4-13.5-4.2c-0.9-0.6-1.9-1-3-1c-1.4,0-2.7,0.5-3.7,1.6c-1,1-1.6,2.3-1.6,3.8C349.5,47.3,350.3,48.8,351.9,49.8z"/>
<path class="st0" d="M413.3,53.1c1.1,1.1,2.5,1.7,4.1,1.7c1.5,0,2.9-0.6,4-1.7c1.1-1.1,1.7-2.5,1.7-4V10.8h11.1
	c1.4,0,2.6-0.5,3.6-1.5c1-1,1.5-2.1,1.5-3.5c0-1.4-0.5-2.6-1.5-3.6c-1-1-2.2-1.5-3.6-1.5h-33.7c-1.4,0-2.6,0.5-3.6,1.5
	c-1,1-1.5,2.2-1.5,3.6c0,1.3,0.5,2.5,1.5,3.5c1,1,2.2,1.5,3.6,1.5h11.1v38.3C411.6,50.7,412.2,52,413.3,53.1z"/>
<path class="st0" d="M460.8,10.7l8.5,24.2h-17L460.8,10.7z M485.7,47L470.2,6.6c-0.7-1.9-2-3.5-3.7-4.6c-1.7-1.2-3.6-1.8-5.7-1.8
	c-2.1,0-4,0.6-5.7,1.8c-1.7,1.2-2.9,2.7-3.7,4.6L435.8,47c-0.3,1-0.4,1.6-0.4,2c0,1.6,0.6,3,1.7,4.1c1.1,1.1,2.5,1.7,4.1,1.7
	c1.2,0,2.4-0.4,3.4-1.1c1-0.7,1.7-1.6,2.1-2.8l2.2-6.2h24l2.2,6.2c0.4,1.1,1.1,2,2,2.8c1,0.7,2.1,1.1,3.3,1.1c1.6,0,3-0.6,4.1-1.7
	c1.2-1.1,1.7-2.5,1.7-4.1C486.2,48.4,486,47.8,485.7,47z"/>
<path class="st0" d="M531.3,5.8c0-1.5-0.5-2.9-1.6-3.9c-1.1-1.1-2.4-1.6-3.9-1.6c-1.9,0-3.4,0.8-4.5,2.4l-12.8,19.7l-13-19.7
	c-1-1.6-2.5-2.4-4.5-2.4c-1.5,0-2.9,0.5-3.9,1.6c-1.1,1.1-1.6,2.4-1.6,3.9c0,1.2,0.4,2.3,1.1,3.3l16.1,23.3v16.7
	c0,1.5,0.6,2.9,1.7,4c1.1,1.1,2.5,1.7,4.1,1.7c1.5,0,2.9-0.6,4-1.7c1.1-1.1,1.7-2.5,1.7-4V32.2l16-23.1C530.9,8,531.3,6.9,531.3,5.8
	z"/>
<path class="st0" d="M538.1,49.8c5.1,3.6,11.3,5.4,18.8,5.4c6.8,0,12-1.5,15.8-4.6c3.7-3.1,5.6-7.3,5.6-12.5
	c0-6.6-3.3-11.1-9.9-13.5c-2.9-1.2-6.3-2.2-10.1-3c-4.1-1-6.9-1.9-8.4-2.7c-1.5-0.8-2.2-1.9-2.2-3.5c0-1.7,0.7-3,2.2-4
	c1.5-1,3.6-1.4,6.4-1.4c4,0,8,1.1,12.1,3.4c0.7,0.5,1.7,0.8,2.7,0.8c1.4,0,2.6-0.5,3.6-1.6c1-1,1.6-2.3,1.6-3.7c0-2-0.9-3.5-2.6-4.5
	c-5-2.9-10.5-4.4-16.6-4.4c-6.4,0-11.5,1.5-15.3,4.6c-3.8,3-5.7,6.9-5.7,11.5c0,3.4,0.9,6.2,2.7,8.5c1.8,2.2,4.2,3.9,7,5
	c2.7,1,6.1,1.9,10.2,2.9c3.9,0.9,6.7,1.8,8.3,2.8c1.7,1,2.5,2.3,2.5,4c0,1.7-0.8,3.1-2.5,4.3c-1.7,1.1-3.9,1.7-6.8,1.7
	c-4.9,0-9.3-1.4-13.5-4.2c-0.9-0.6-1.9-1-3-1c-1.4,0-2.7,0.5-3.7,1.6c-1,1-1.6,2.3-1.6,3.8C535.7,47.3,536.5,48.8,538.1,49.8z"/>
<path class="st4" d="M523.9,111.4c4.3,0,6.5-3.2,8-7.5l8.1-23.2h-3.5l-3.8,11.8c-0.6,1.9-1.2,4.1-1.8,6h-0.2c-0.7-2-1.4-4.2-2.1-6
	l-4.4-11.8h-3.7l8.6,21.4l-0.5,1.6c-0.9,2.7-2.4,4.6-4.8,4.6c-0.6,0-1.2-0.2-1.6-0.3l-0.7,2.9C522.1,111.2,522.9,111.4,523.9,111.4z
	 M507.3,99.8c-2.1,0-3.7-1-3.7-3.4c0-2.7,2.4-4.5,9.6-5.4v5.9C511.1,98.8,509.4,99.8,507.3,99.8z M506.3,102.7c2.7,0,5-1.4,7.1-3.1
	h0.1l0.3,2.6h3V89c0-5.3-2.2-8.8-7.4-8.8c-3.4,0-6.4,1.5-8.4,2.8l1.4,2.5c1.7-1.1,3.9-2.3,6.4-2.3c3.5,0,4.4,2.7,4.4,5.4
	c-9.1,1-13.1,3.3-13.1,8C500,100.5,502.7,102.7,506.3,102.7z M494.1,102.7c1.3,0,2.8-0.4,4-0.8l-0.7-2.7c-0.7,0.3-1.7,0.6-2.4,0.6
	c-2.5,0-3.3-1.5-3.3-4.1V83.7h5.8v-2.9h-5.8v-6h-3l-0.4,6l-3.3,0.2v2.7h3.2v11.8C488,99.8,489.6,102.7,494.1,102.7z M473.3,102.7
	c6.1,0,9.8-3.6,9.8-8.2c0-4.3-2.6-6.3-6-7.7l-4.1-1.8c-2.3-1-4.8-2-4.8-4.8c0-2.6,2.1-4.2,5.4-4.2c2.7,0,4.8,1,6.6,2.7l1.9-2.4
	c-2-2.1-5.1-3.6-8.5-3.6c-5.2,0-9.1,3.3-9.1,7.7c0,4.2,3.2,6.3,5.8,7.4l4.1,1.8c2.7,1.2,4.8,2.1,4.8,5.1c0,2.8-2.2,4.7-6,4.7
	c-3,0-5.9-1.4-8-3.6l-2.2,2.5C465.7,101,469.2,102.7,473.3,102.7z M448,102.7c1.3,0,2.8-0.4,4-0.8l-0.7-2.7
	c-0.7,0.3-1.7,0.6-2.4,0.6c-2.5,0-3.3-1.5-3.3-4.1V83.7h5.8v-2.9h-5.8v-6h-3l-0.4,6l-3.3,0.2v2.7h3.2v11.8
	C441.9,99.8,443.5,102.7,448,102.7z M417.2,102.2h3.6V86.7c2.1-2.2,3.7-3.3,5.8-3.3c2.8,0,4,1.7,4,5.7v13.1h3.6V88.6
	c0-5.5-2-8.4-6.5-8.4c-2.9,0-5.1,1.6-7.2,3.6h-0.1l-0.3-3.1h-3V102.2z M401,99.8c-2.1,0-3.7-1-3.7-3.4c0-2.7,2.4-4.5,9.6-5.4v5.9
	C404.8,98.8,403.1,99.8,401,99.8z M400,102.7c2.7,0,5-1.4,7.1-3.1h0.1l0.3,2.6h3V89c0-5.3-2.2-8.8-7.4-8.8c-3.4,0-6.4,1.5-8.4,2.8
	l1.4,2.5c1.7-1.1,3.9-2.3,6.4-2.3c3.5,0,4.4,2.7,4.4,5.4c-9.1,1-13.1,3.3-13.1,8C393.7,100.5,396.4,102.7,400,102.7z M382.2,102.7
	c5,0,7.8-2.9,7.8-6.4c0-4.1-3.4-5.3-6.5-6.5c-2.4-0.9-4.7-1.7-4.7-3.7c0-1.6,1.2-3.1,3.9-3.1c1.9,0,3.4,0.8,4.9,1.9l1.7-2.3
	c-1.7-1.3-4-2.4-6.7-2.4c-4.6,0-7.4,2.6-7.4,6.1c0,3.6,3.4,5.1,6.4,6.2c2.4,0.9,4.9,1.9,4.9,4.1c0,1.8-1.4,3.3-4.2,3.3
	c-2.6,0-4.5-1-6.3-2.5l-1.8,2.4C376.2,101.4,379.2,102.7,382.2,102.7z M360.4,99.8c-2.1,0-3.7-1-3.7-3.4c0-2.7,2.4-4.5,9.6-5.4v5.9
	C364.2,98.8,362.5,99.8,360.4,99.8z M359.4,102.7c2.7,0,5-1.4,7.1-3.1h0.1l0.3,2.6h3V89c0-5.3-2.2-8.8-7.4-8.8
	c-3.4,0-6.4,1.5-8.4,2.8l1.4,2.5c1.7-1.1,3.9-2.3,6.4-2.3c3.5,0,4.4,2.7,4.4,5.4c-9.1,1-13.1,3.3-13.1,8
	C353.1,100.5,355.8,102.7,359.4,102.7z M335.2,89.7c0.4-4.2,3.1-6.6,6.1-6.6c3.3,0,5.3,2.3,5.3,6.6H335.2z M341.9,102.7
	c2.9,0,5.2-1,7.1-2.2l-1.3-2.4c-1.6,1-3.3,1.7-5.3,1.7c-4.1,0-6.8-2.9-7.1-7.5h14.4c0.1-0.5,0.2-1.3,0.2-2.1c0-6.1-3.1-10-8.5-10
	c-4.9,0-9.6,4.3-9.6,11.3C331.6,98.5,336.2,102.7,341.9,102.7z M325.8,102.7c0.9,0,1.6-0.2,2.1-0.3l-0.5-2.8
	c-0.4,0.1-0.6,0.1-0.8,0.1c-0.5,0-1-0.4-1-1.5V70.8H322v27.1C322,101,323.1,102.7,325.8,102.7z M301.1,87.7V76.3h4.1
	c5.1,0,7.6,1.4,7.6,5.5c0,4.1-2.4,5.9-7.5,5.9H301.1z M297.4,102.2h3.7V90.7h4.7c6.3,0,10.7-2.8,10.7-8.9c0-6.3-4.4-8.5-10.8-8.5
	h-8.2V102.2z M273,102.2h3.6V88.4c1.4-3.6,3.6-4.9,5.4-4.9c0.9,0,1.3,0.1,2.1,0.4l0.7-3.2c-0.7-0.3-1.3-0.4-2.3-0.4
	c-2.4,0-4.6,1.7-6.1,4.4h-0.1l-0.3-3.9h-3V102.2z M255.3,102.7c2.9,0,5.1-1.5,7.1-3.9h0.1l0.3,3.3h3V80.8h-3.6v15.2
	c-2,2.5-3.5,3.6-5.7,3.6c-2.8,0-4-1.7-4-5.7V80.8h-3.6v13.6C248.8,99.8,250.8,102.7,255.3,102.7z M233.6,99.7
	c-3.7,0-6.2-3.3-6.2-8.2c0-4.9,2.5-8.2,6.2-8.2s6.2,3.3,6.2,8.2C239.7,96.4,237.2,99.7,233.6,99.7z M233.6,102.7
	c5.2,0,9.9-4.1,9.9-11.2c0-7.1-4.7-11.3-9.9-11.3s-9.9,4.1-9.9,11.3C223.7,98.6,228.3,102.7,233.6,102.7z M211.1,102.2h3.7V91
	l8.7-17.7h-3.8l-3.7,8.2c-0.9,2.1-1.9,4.1-2.9,6.3h-0.2c-1-2.2-1.9-4.2-2.8-6.3l-3.7-8.2h-3.9l8.7,17.7V102.2z"/>
</svg>
